<svg width="119.99999999999999" height="48.00000000000001" xmlns="http://www.w3.org/2000/svg">

 <g>
  <title>background</title>
  <rect fill="none" id="canvas_background" height="402" width="582" y="-1" x="-1"/>
 </g>
 <g>
  <title>Layer 1</title>
  <g id="svg_1">
   <polygon id="svg_2" points="2,9.6 2,24 9,24 9,17 15,17 15,24 22,24 22,9.6 12,0.7  " fill="#FFFFFF"/>
  </g>
  <rect id="svg_3" height="2" width="14" fill="#FFFFFF" y="20" x="77"/>
  <rect id="svg_4" height="2" width="14" fill="#D44457" y="44" x="77"/>
  <path id="svg_5" d="m72,2l0,16l24,0l0,-16l-24,0zm9,13l0,-10l6.7,5l-6.7,5z" fill="#FFFFFF"/>
  <g id="svg_6">
   <path id="svg_7" d="m46,8l-6,0c-1.1,0 -2,0.9 -2,2l0,12c0,1.1 0.9,2 2,2l6,0c1.1,0 2,-0.9 2,-2l0,-12c0,-1.1 -0.9,-2 -2,-2zm0,12l-6,0l0,-10l6,0l0,10z" fill="#FFFFFF"/>
   <path id="svg_8" d="m36,15l-6,0l0,-12l14,0l0,3l2,0c0.3,0 0.7,0.1 1,0.1l0,-4.1c0,-1.1 -0.9,-2 -2,-2l-19,0c-1.1,0 -2,0.9 -2,2l0,14c0,1.1 0.9,2 2,2l10,0l0,-3zm-8,-4l-2,0l0,-4l2,0l0,4z" fill="#FFFFFF"/>
  </g>
  <g id="svg_12">
   <polygon id="svg_13" points="2,33.6 2,48 9,48 9,41 15,41 15,48 22,48 22,33.6 12,24.7  " fill="#D44457"/>
  </g>
  <path id="svg_14" d="m72,26l0,16l24,0l0,-16l-24,0zm9,13l0,-10l6.7,5l-6.7,5z" fill="#D44457"/>
  <g id="svg_15">
   <path id="svg_16" d="m46,32l-6,0c-1.1,0 -2,0.9 -2,2l0,12c0,1.1 0.9,2 2,2l6,0c1.1,0 2,-0.9 2,-2l0,-12c0,-1.1 -0.9,-2 -2,-2zm0,12l-6,0l0,-10l6,0l0,10z" fill="#D44457"/>
   <path id="svg_17" d="m36,39l-6,0l0,-12l14,0l0,3l2,0c0.3,0 0.7,0.1 1,0.1l0,-4.1c0,-1.1 -0.9,-2 -2,-2l-19,0c-1.1,0 -2,0.9 -2,2l0,14c0,1.1 0.9,2 2,2l10,0l0,-3zm-8,-4l-2,0l0,-4l2,0l0,4z" fill="#D44457"/>
  </g>
  <g stroke="null" id="svg_50">
   <g stroke="null" transform="matrix(0.38063402520872286,0,0,0.38063402520872286,-243.8180507801962,-96.76683607839341) " id="svg_29">
    <g stroke="null" id="svg_30">
     <path stroke="null" id="svg_31" fill="#D80027" d="m808.833559,372.086041l-2,0l0,-5l0,-38c0,-0.2 -0.1,-0.5 -0.2,-0.6l-2.9,-8.7c-0.1,-0.4 -0.5,-0.7 -0.9,-0.7s-0.8,0.3 -0.9,0.7l-2.9,8.7c-0.1,0.2 -0.2,0.4 -0.2,0.6l0,38l0,11c0,0.6 0.4,1 1,1l6,0c0.6,0 1,-0.4 1,-1l0,-4l3,0c0.6,0 1,-0.4 1,-1l0,-30l-2,0l0,29zm-8,-42l4,0l0,36l-4,0l0,-36zm2,-6.8l1.6,4.8l-3.2,0l1.6,-4.8zm2,53.8l-4,0l0,-9l4,0l0,9z"/>
     <path stroke="null" id="svg_32" fill="#D80027" d="m826.833559,319.086041l-11,0c-0.6,0 -1,0.4 -1,1l0,58c0,0.6 0.4,1 1,1l11,0c0.6,0 1,-0.4 1,-1l0,-58c0,-0.6 -0.4,-1 -1,-1zm-1,58l-9,0l0,-7l5,0l0,-2l-5,0l0,-8l5,0l0,-2l-5,0l0,-8l5,0l0,-2l-5,0l0,-8l5,0l0,-2l-5,0l0,-8l5,0l0,-2l-5,0l0,-7l9,0l0,56z"/>
     <path stroke="null" id="svg_33" fill="#D80027" d="m781.833559,329.086041c-7.7,0 -14,6.3 -14,14c0,5.4 3.1,10.3 8,12.6l0,7.4l0,5c0,0.6 0.4,1 1,1l4,0l0,3l2,0l0,-3l4,0c0.6,0 1,-0.4 1,-1l0,-5l0,-7.4c4.9,-2.3 8,-7.2 8,-12.6c0,-7.7 -6.3,-14 -14,-14zm4,38l-8,0l0,-3l8,0l0,3zm0.6,-12.9c-0.4,0.1 -0.6,0.5 -0.6,0.9l0,7l-8,0l0,-2l5,0l0,-2l-5,0l0,-3c0,-0.4 -0.2,-0.8 -0.6,-0.9c-4.5,-1.9 -7.4,-6.3 -7.4,-11.1c0,-6.6 5.4,-12 12,-12s12,5.4 12,12c0,4.8 -2.9,9.2 -7.4,11.1z"/>
     <polygon stroke="null" id="svg_34" fill="#D80027" points="784.1335939764977,337.38604736328125 781.8336061835289,339.6860656738281 779.5336183905602,337.38604736328125 778.1335939764977,338.78607177734375 780.8336061835289,341.4860534667969 780.8336061835289,352.0860595703125 782.8336061835289,352.0860595703125 782.8336061835289,341.4860534667969 785.5336183905602,338.78607177734375 "/>
    </g>
   </g>
   <g stroke="null" transform="matrix(0.38063402520872286,0,0,0.38063402520872286,-243.8180507801962,-96.76683607839341) " id="svg_35"/>
   <g stroke="null" transform="matrix(0.38063402520872286,0,0,0.38063402520872286,-243.8180507801962,-96.76683607839341) " id="svg_36"/>
   <g stroke="null" transform="matrix(0.38063402520872286,0,0,0.38063402520872286,-243.8180507801962,-96.76683607839341) " id="svg_37"/>
   <g stroke="null" transform="matrix(0.38063402520872286,0,0,0.38063402520872286,-243.8180507801962,-96.76683607839341) " id="svg_38"/>
   <g stroke="null" transform="matrix(0.38063402520872286,0,0,0.38063402520872286,-243.8180507801962,-96.76683607839341) " id="svg_39"/>
   <g stroke="null" transform="matrix(0.38063402520872286,0,0,0.38063402520872286,-243.8180507801962,-96.76683607839341) " id="svg_40"/>
   <g stroke="null" transform="matrix(0.38063402520872286,0,0,0.38063402520872286,-243.8180507801962,-96.76683607839341) " id="svg_41"/>
   <g stroke="null" transform="matrix(0.38063402520872286,0,0,0.38063402520872286,-243.8180507801962,-96.76683607839341) " id="svg_42"/>
   <g stroke="null" transform="matrix(0.38063402520872286,0,0,0.38063402520872286,-243.8180507801962,-96.76683607839341) " id="svg_43"/>
   <g stroke="null" transform="matrix(0.38063402520872286,0,0,0.38063402520872286,-243.8180507801962,-96.76683607839341) " id="svg_44"/>
   <g stroke="null" transform="matrix(0.38063402520872286,0,0,0.38063402520872286,-243.8180507801962,-96.76683607839341) " id="svg_45"/>
   <g stroke="null" transform="matrix(0.38063402520872286,0,0,0.38063402520872286,-243.8180507801962,-96.76683607839341) " id="svg_46"/>
   <g stroke="null" transform="matrix(0.38063402520872286,0,0,0.38063402520872286,-243.8180507801962,-96.76683607839341) " id="svg_47"/>
   <g stroke="null" transform="matrix(0.38063402520872286,0,0,0.38063402520872286,-243.8180507801962,-96.76683607839341) " id="svg_48"/>
   <g stroke="null" transform="matrix(0.38063402520872286,0,0,0.38063402520872286,-243.8180507801962,-96.76683607839341) " id="svg_49"/>
  </g>
  <g stroke="null" id="svg_75">
   <g stroke="null" transform="matrix(0.7376372085996716,0,0,0.7376372085996716,81.3104058178301,56.186004898025715) " id="svg_55">
    <g stroke="null" id="svg_56">
     <path stroke="null" id="svg_57" fill="#D80027" d="m44.219238,-37.592537l0,-0.858c0,-0.722 -0.584,-1.306 -1.307,-1.306l-1.927,0c0.183,-0.373 0.287,-0.776 0.287,-1.208c0,-1.474 -1.198,-2.678 -2.672,-2.678c-1.473,0 -2.672,1.206 -2.672,2.681c0,0.433 0.104,0.833 0.287,1.206l-2.582,0c-0.722,0 -1.306,0.584 -1.306,1.306l0,0.857l-3.29,0c-1.169,0 -2.118,0.948 -2.118,2.117l0,21.715c0,1.17 0.948,2.118 2.118,2.118l18.472,0c1.17,0 2.117,-0.948 2.117,-2.118l0,-21.715c0,-1.169 -0.949,-2.117 -2.117,-2.117l-3.29,0zm-7.211,-3.371c0,-0.879 0.715,-1.599 1.592,-1.599c0.877,0 1.592,0.721 1.592,1.601c0,0.48 -0.213,0.915 -0.547,1.206l-2.089,0c-0.336,-0.291 -0.548,-0.728 -0.548,-1.208zm10.455,26.059c0,0.606 -0.492,1.1 -1.099,1.1l-16.183,0c-0.607,0 -1.099,-0.492 -1.099,-1.1l0,-19.427c0,-0.607 0.492,-1.099 1.099,-1.099l2.145,0c0,0.597 0.484,1.081 1.081,1.081l9.73,0c0.598,0 1.082,-0.484 1.082,-1.081l2.146,0c0.606,0 1.099,0.491 1.099,1.099l0,19.427l-0.001,0z"/>
     <path stroke="null" id="svg_58" fill="#D80027" d="m37.402238,-24.070537l-1.318,-1.32c-0.148,-0.148 -0.35,-0.232 -0.56,-0.232c-0.21,0 -0.411,0.084 -0.56,0.232l-0.409,0.409c-0.309,0.309 -0.309,0.81 0,1.119l2.315,2.317c0.151,0.15 0.358,0.234 0.571,0.23c0.214,-0.003 0.418,-0.092 0.565,-0.248l4.021,-4.264c0.3,-0.317 0.286,-0.817 -0.032,-1.118l-0.42,-0.396c-0.152,-0.145 -0.355,-0.222 -0.566,-0.216c-0.209,0.006 -0.408,0.096 -0.553,0.248l-3.054,3.239z"/>
     <path stroke="null" id="svg_59" fill="#D80027" d="m38.272238,-32.739537c-4.356,0 -7.899,3.548 -7.899,7.91c0,4.359 3.543,7.908 7.899,7.908c4.355,0 7.9,-3.549 7.9,-7.908c0,-4.362 -3.543,-7.91 -7.9,-7.91zm0,13.658c-3.165,0 -5.739,-2.578 -5.739,-5.748c0,-3.17 2.574,-5.749 5.739,-5.749c3.164,0 5.74,2.578 5.74,5.749c0,3.169 -2.576,5.748 -5.74,5.748z"/>
    </g>
   </g>
   <g stroke="null" transform="matrix(0.7376372085996716,0,0,0.7376372085996716,81.3104058178301,56.186004898025715) " id="svg_60"/>
   <g stroke="null" transform="matrix(0.7376372085996716,0,0,0.7376372085996716,81.3104058178301,56.186004898025715) " id="svg_61"/>
   <g stroke="null" transform="matrix(0.7376372085996716,0,0,0.7376372085996716,81.3104058178301,56.186004898025715) " id="svg_62"/>
   <g stroke="null" transform="matrix(0.7376372085996716,0,0,0.7376372085996716,81.3104058178301,56.186004898025715) " id="svg_63"/>
   <g stroke="null" transform="matrix(0.7376372085996716,0,0,0.7376372085996716,81.3104058178301,56.186004898025715) " id="svg_64"/>
   <g stroke="null" transform="matrix(0.7376372085996716,0,0,0.7376372085996716,81.3104058178301,56.186004898025715) " id="svg_65"/>
   <g stroke="null" transform="matrix(0.7376372085996716,0,0,0.7376372085996716,81.3104058178301,56.186004898025715) " id="svg_66"/>
   <g stroke="null" transform="matrix(0.7376372085996716,0,0,0.7376372085996716,81.3104058178301,56.186004898025715) " id="svg_67"/>
   <g stroke="null" transform="matrix(0.7376372085996716,0,0,0.7376372085996716,81.3104058178301,56.186004898025715) " id="svg_68"/>
   <g stroke="null" transform="matrix(0.7376372085996716,0,0,0.7376372085996716,81.3104058178301,56.186004898025715) " id="svg_69"/>
   <g stroke="null" transform="matrix(0.7376372085996716,0,0,0.7376372085996716,81.3104058178301,56.186004898025715) " id="svg_70"/>
   <g stroke="null" transform="matrix(0.7376372085996716,0,0,0.7376372085996716,81.3104058178301,56.186004898025715) " id="svg_71"/>
   <g stroke="null" transform="matrix(0.7376372085996716,0,0,0.7376372085996716,81.3104058178301,56.186004898025715) " id="svg_72"/>
   <g stroke="null" transform="matrix(0.7376372085996716,0,0,0.7376372085996716,81.3104058178301,56.186004898025715) " id="svg_73"/>
   <g stroke="null" transform="matrix(0.7376372085996716,0,0,0.7376372085996716,81.3104058178301,56.186004898025715) " id="svg_74"/>
  </g>
  <g stroke="null" id="svg_97">
   <g stroke="null" transform="matrix(0.38063402520872286,0,0,0.38063402520872286,-243.8180507801962,-96.76683607839341) " id="svg_81">
    <g stroke="null" id="svg_80">
     <path stroke="null" id="svg_76" fill="#D80027" d="m808.833559,372.086041l-2,0l0,-5l0,-38c0,-0.2 -0.1,-0.5 -0.2,-0.6l-2.9,-8.7c-0.1,-0.4 -0.5,-0.7 -0.9,-0.7s-0.8,0.3 -0.9,0.7l-2.9,8.7c-0.1,0.2 -0.2,0.4 -0.2,0.6l0,38l0,11c0,0.6 0.4,1 1,1l6,0c0.6,0 1,-0.4 1,-1l0,-4l3,0c0.6,0 1,-0.4 1,-1l0,-30l-2,0l0,29zm-8,-42l4,0l0,36l-4,0l0,-36zm2,-6.8l1.6,4.8l-3.2,0l1.6,-4.8zm2,53.8l-4,0l0,-9l4,0l0,9z"/>
     <path stroke="null" id="svg_77" fill="#D80027" d="m826.833559,319.086041l-11,0c-0.6,0 -1,0.4 -1,1l0,58c0,0.6 0.4,1 1,1l11,0c0.6,0 1,-0.4 1,-1l0,-58c0,-0.6 -0.4,-1 -1,-1zm-1,58l-9,0l0,-7l5,0l0,-2l-5,0l0,-8l5,0l0,-2l-5,0l0,-8l5,0l0,-2l-5,0l0,-8l5,0l0,-2l-5,0l0,-8l5,0l0,-2l-5,0l0,-7l9,0l0,56z"/>
     <path stroke="null" id="svg_78" fill="#D80027" d="m781.833559,329.086041c-7.7,0 -14,6.3 -14,14c0,5.4 3.1,10.3 8,12.6l0,7.4l0,5c0,0.6 0.4,1 1,1l4,0l0,3l2,0l0,-3l4,0c0.6,0 1,-0.4 1,-1l0,-5l0,-7.4c4.9,-2.3 8,-7.2 8,-12.6c0,-7.7 -6.3,-14 -14,-14zm4,38l-8,0l0,-3l8,0l0,3zm0.6,-12.9c-0.4,0.1 -0.6,0.5 -0.6,0.9l0,7l-8,0l0,-2l5,0l0,-2l-5,0l0,-3c0,-0.4 -0.2,-0.8 -0.6,-0.9c-4.5,-1.9 -7.4,-6.3 -7.4,-11.1c0,-6.6 5.4,-12 12,-12s12,5.4 12,12c0,4.8 -2.9,9.2 -7.4,11.1z"/>
     <polygon stroke="null" id="svg_79" fill="#D80027" points="784.1335939764977,337.38604736328125 781.8336061835289,339.6860656738281 779.5336183905602,337.38604736328125 778.1335939764977,338.78607177734375 780.8336061835289,341.4860534667969 780.8336061835289,352.0860595703125 782.8336061835289,352.0860595703125 782.8336061835289,341.4860534667969 785.5336183905602,338.78607177734375 "/>
    </g>
   </g>
   <g stroke="null" transform="matrix(0.38063402520872286,0,0,0.38063402520872286,-243.8180507801962,-96.76683607839341) " id="svg_82"/>
   <g stroke="null" transform="matrix(0.38063402520872286,0,0,0.38063402520872286,-243.8180507801962,-96.76683607839341) " id="svg_83"/>
   <g stroke="null" transform="matrix(0.38063402520872286,0,0,0.38063402520872286,-243.8180507801962,-96.76683607839341) " id="svg_84"/>
   <g stroke="null" transform="matrix(0.38063402520872286,0,0,0.38063402520872286,-243.8180507801962,-96.76683607839341) " id="svg_85"/>
   <g stroke="null" transform="matrix(0.38063402520872286,0,0,0.38063402520872286,-243.8180507801962,-96.76683607839341) " id="svg_86"/>
   <g stroke="null" transform="matrix(0.38063402520872286,0,0,0.38063402520872286,-243.8180507801962,-96.76683607839341) " id="svg_87"/>
   <g stroke="null" transform="matrix(0.38063402520872286,0,0,0.38063402520872286,-243.8180507801962,-96.76683607839341) " id="svg_88"/>
   <g stroke="null" transform="matrix(0.38063402520872286,0,0,0.38063402520872286,-243.8180507801962,-96.76683607839341) " id="svg_89"/>
   <g stroke="null" transform="matrix(0.38063402520872286,0,0,0.38063402520872286,-243.8180507801962,-96.76683607839341) " id="svg_90"/>
   <g stroke="null" transform="matrix(0.38063402520872286,0,0,0.38063402520872286,-243.8180507801962,-96.76683607839341) " id="svg_91"/>
   <g stroke="null" transform="matrix(0.38063402520872286,0,0,0.38063402520872286,-243.8180507801962,-96.76683607839341) " id="svg_92"/>
   <g stroke="null" transform="matrix(0.38063402520872286,0,0,0.38063402520872286,-243.8180507801962,-96.76683607839341) " id="svg_93"/>
   <g stroke="null" transform="matrix(0.38063402520872286,0,0,0.38063402520872286,-243.8180507801962,-96.76683607839341) " id="svg_94"/>
   <g stroke="null" transform="matrix(0.38063402520872286,0,0,0.38063402520872286,-243.8180507801962,-96.76683607839341) " id="svg_95"/>
   <g stroke="null" transform="matrix(0.38063402520872286,0,0,0.38063402520872286,-243.8180507801962,-96.76683607839341) " id="svg_96"/>
  </g>
  <g stroke="null" id="svg_119">
   <g stroke="null" transform="matrix(0.38063402520872286,0,0,0.38063402520872286,-243.8180507801962,-96.76683607839341) " id="svg_103">
    <g stroke="null" id="svg_102">
     <path stroke="null" id="svg_98" fill="#D80027" d="m808.833559,372.086041l-2,0l0,-5l0,-38c0,-0.2 -0.1,-0.5 -0.2,-0.6l-2.9,-8.7c-0.1,-0.4 -0.5,-0.7 -0.9,-0.7s-0.8,0.3 -0.9,0.7l-2.9,8.7c-0.1,0.2 -0.2,0.4 -0.2,0.6l0,38l0,11c0,0.6 0.4,1 1,1l6,0c0.6,0 1,-0.4 1,-1l0,-4l3,0c0.6,0 1,-0.4 1,-1l0,-30l-2,0l0,29zm-8,-42l4,0l0,36l-4,0l0,-36zm2,-6.8l1.6,4.8l-3.2,0l1.6,-4.8zm2,53.8l-4,0l0,-9l4,0l0,9z"/>
     <path stroke="null" id="svg_99" fill="#D80027" d="m826.833559,319.086041l-11,0c-0.6,0 -1,0.4 -1,1l0,58c0,0.6 0.4,1 1,1l11,0c0.6,0 1,-0.4 1,-1l0,-58c0,-0.6 -0.4,-1 -1,-1zm-1,58l-9,0l0,-7l5,0l0,-2l-5,0l0,-8l5,0l0,-2l-5,0l0,-8l5,0l0,-2l-5,0l0,-8l5,0l0,-2l-5,0l0,-8l5,0l0,-2l-5,0l0,-7l9,0l0,56z"/>
     <path stroke="null" id="svg_100" fill="#D80027" d="m781.833559,329.086041c-7.7,0 -14,6.3 -14,14c0,5.4 3.1,10.3 8,12.6l0,7.4l0,5c0,0.6 0.4,1 1,1l4,0l0,3l2,0l0,-3l4,0c0.6,0 1,-0.4 1,-1l0,-5l0,-7.4c4.9,-2.3 8,-7.2 8,-12.6c0,-7.7 -6.3,-14 -14,-14zm4,38l-8,0l0,-3l8,0l0,3zm0.6,-12.9c-0.4,0.1 -0.6,0.5 -0.6,0.9l0,7l-8,0l0,-2l5,0l0,-2l-5,0l0,-3c0,-0.4 -0.2,-0.8 -0.6,-0.9c-4.5,-1.9 -7.4,-6.3 -7.4,-11.1c0,-6.6 5.4,-12 12,-12s12,5.4 12,12c0,4.8 -2.9,9.2 -7.4,11.1z"/>
     <polygon stroke="null" id="svg_101" fill="#D80027" points="784.1335939764977,337.38604736328125 781.8336061835289,339.6860656738281 779.5336183905602,337.38604736328125 778.1335939764977,338.78607177734375 780.8336061835289,341.4860534667969 780.8336061835289,352.0860595703125 782.8336061835289,352.0860595703125 782.8336061835289,341.4860534667969 785.5336183905602,338.78607177734375 "/>
    </g>
   </g>
   <g stroke="null" transform="matrix(0.38063402520872286,0,0,0.38063402520872286,-243.8180507801962,-96.76683607839341) " id="svg_104"/>
   <g stroke="null" transform="matrix(0.38063402520872286,0,0,0.38063402520872286,-243.8180507801962,-96.76683607839341) " id="svg_105"/>
   <g stroke="null" transform="matrix(0.38063402520872286,0,0,0.38063402520872286,-243.8180507801962,-96.76683607839341) " id="svg_106"/>
   <g stroke="null" transform="matrix(0.38063402520872286,0,0,0.38063402520872286,-243.8180507801962,-96.76683607839341) " id="svg_107"/>
   <g stroke="null" transform="matrix(0.38063402520872286,0,0,0.38063402520872286,-243.8180507801962,-96.76683607839341) " id="svg_108"/>
   <g stroke="null" transform="matrix(0.38063402520872286,0,0,0.38063402520872286,-243.8180507801962,-96.76683607839341) " id="svg_109"/>
   <g stroke="null" transform="matrix(0.38063402520872286,0,0,0.38063402520872286,-243.8180507801962,-96.76683607839341) " id="svg_110"/>
   <g stroke="null" transform="matrix(0.38063402520872286,0,0,0.38063402520872286,-243.8180507801962,-96.76683607839341) " id="svg_111"/>
   <g stroke="null" transform="matrix(0.38063402520872286,0,0,0.38063402520872286,-243.8180507801962,-96.76683607839341) " id="svg_112"/>
   <g stroke="null" transform="matrix(0.38063402520872286,0,0,0.38063402520872286,-243.8180507801962,-96.76683607839341) " id="svg_113"/>
   <g stroke="null" transform="matrix(0.38063402520872286,0,0,0.38063402520872286,-243.8180507801962,-96.76683607839341) " id="svg_114"/>
   <g stroke="null" transform="matrix(0.38063402520872286,0,0,0.38063402520872286,-243.8180507801962,-96.76683607839341) " id="svg_115"/>
   <g stroke="null" transform="matrix(0.38063402520872286,0,0,0.38063402520872286,-243.8180507801962,-96.76683607839341) " id="svg_116"/>
   <g stroke="null" transform="matrix(0.38063402520872286,0,0,0.38063402520872286,-243.8180507801962,-96.76683607839341) " id="svg_117"/>
   <g stroke="null" transform="matrix(0.38063402520872286,0,0,0.38063402520872286,-243.8180507801962,-96.76683607839341) " id="svg_118"/>
  </g>
  <g stroke="null" id="svg_250">
   <g stroke="null" transform="matrix(0.38063402520872286,0,0,0.38063402520872286,-243.8180507801962,-96.76683607839341) " id="svg_234">
    <g stroke="null" id="svg_233">
     <path stroke="null" id="svg_229" fill="#ffffff" d="m808.833559,308.382363l-2,0l0,-5l0,-38c0,-0.2 -0.1,-0.5 -0.2,-0.6l-2.9,-8.7c-0.1,-0.4 -0.5,-0.7 -0.9,-0.7s-0.8,0.3 -0.9,0.7l-2.9,8.7c-0.1,0.2 -0.2,0.4 -0.2,0.6l0,38l0,11c0,0.6 0.4,1 1,1l6,0c0.6,0 1,-0.4 1,-1l0,-4l3,0c0.6,0 1,-0.4 1,-1l0,-30l-2,0l0,29zm-8,-42l4,0l0,36l-4,0l0,-36zm2,-6.8l1.6,4.8l-3.2,0l1.6,-4.8zm2,53.8l-4,0l0,-9l4,0l0,9z"/>
     <path stroke="null" id="svg_230" fill="#ffffff" d="m826.833559,255.382363l-11,0c-0.6,0 -1,0.4 -1,1l0,58c0,0.6 0.4,1 1,1l11,0c0.6,0 1,-0.4 1,-1l0,-58c0,-0.6 -0.4,-1 -1,-1zm-1,58l-9,0l0,-7l5,0l0,-2l-5,0l0,-8l5,0l0,-2l-5,0l0,-8l5,0l0,-2l-5,0l0,-8l5,0l0,-2l-5,0l0,-8l5,0l0,-2l-5,0l0,-7l9,0l0,56z"/>
     <path stroke="null" id="svg_231" fill="#ffffff" d="m781.833559,265.382363c-7.7,0 -14,6.3 -14,14c0,5.4 3.1,10.3 8,12.6l0,7.4l0,5c0,0.6 0.4,1 1,1l4,0l0,3l2,0l0,-3l4,0c0.6,0 1,-0.4 1,-1l0,-5l0,-7.4c4.9,-2.3 8,-7.2 8,-12.6c0,-7.7 -6.3,-14 -14,-14zm4,38l-8,0l0,-3l8,0l0,3zm0.6,-12.9c-0.4,0.1 -0.6,0.5 -0.6,0.9l0,7l-8,0l0,-2l5,0l0,-2l-5,0l0,-3c0,-0.4 -0.2,-0.8 -0.6,-0.9c-4.5,-1.9 -7.4,-6.3 -7.4,-11.1c0,-6.6 5.4,-12 12,-12s12,5.4 12,12c0,4.8 -2.9,9.2 -7.4,11.1z"/>
     <polygon stroke="null" id="svg_232" fill="#ffffff" points="784.1336059570312,273.6815430819988 781.8336181640625,275.9815613925457 779.5336303710938,273.6815430819988 778.1336059570312,275.0815674960613 780.8336181640625,277.78154918551445 780.8336181640625,288.3815552890301 782.8336181640625,288.3815552890301 782.8336181640625,277.78154918551445 785.5336303710938,275.0815674960613 "/>
    </g>
   </g>
   <g stroke="null" transform="matrix(0.38063402520872286,0,0,0.38063402520872286,-243.8180507801962,-96.76683607839341) " id="svg_235"/>
   <g stroke="null" transform="matrix(0.38063402520872286,0,0,0.38063402520872286,-243.8180507801962,-96.76683607839341) " id="svg_236"/>
   <g stroke="null" transform="matrix(0.38063402520872286,0,0,0.38063402520872286,-243.8180507801962,-96.76683607839341) " id="svg_237"/>
   <g stroke="null" transform="matrix(0.38063402520872286,0,0,0.38063402520872286,-243.8180507801962,-96.76683607839341) " id="svg_238"/>
   <g stroke="null" transform="matrix(0.38063402520872286,0,0,0.38063402520872286,-243.8180507801962,-96.76683607839341) " id="svg_239"/>
   <g stroke="null" transform="matrix(0.38063402520872286,0,0,0.38063402520872286,-243.8180507801962,-96.76683607839341) " id="svg_240"/>
   <g stroke="null" transform="matrix(0.38063402520872286,0,0,0.38063402520872286,-243.8180507801962,-96.76683607839341) " id="svg_241"/>
   <g stroke="null" transform="matrix(0.38063402520872286,0,0,0.38063402520872286,-243.8180507801962,-96.76683607839341) " id="svg_242"/>
   <g stroke="null" transform="matrix(0.38063402520872286,0,0,0.38063402520872286,-243.8180507801962,-96.76683607839341) " id="svg_243"/>
   <g stroke="null" transform="matrix(0.38063402520872286,0,0,0.38063402520872286,-243.8180507801962,-96.76683607839341) " id="svg_244"/>
   <g stroke="null" transform="matrix(0.38063402520872286,0,0,0.38063402520872286,-243.8180507801962,-96.76683607839341) " id="svg_245"/>
   <g stroke="null" transform="matrix(0.38063402520872286,0,0,0.38063402520872286,-243.8180507801962,-96.76683607839341) " id="svg_246"/>
   <g stroke="null" transform="matrix(0.38063402520872286,0,0,0.38063402520872286,-243.8180507801962,-96.76683607839341) " id="svg_247"/>
   <g stroke="null" transform="matrix(0.38063402520872286,0,0,0.38063402520872286,-243.8180507801962,-96.76683607839341) " id="svg_248"/>
   <g stroke="null" transform="matrix(0.38063402520872286,0,0,0.38063402520872286,-243.8180507801962,-96.76683607839341) " id="svg_249"/>
  </g>
  <g stroke="null" id="svg_271">
   <g stroke="null" transform="matrix(0.7376372085996716,0,0,0.7376372085996716,81.3104058178301,56.186004898025715) " id="svg_255">
    <g stroke="null" id="svg_254">
     <path stroke="null" id="svg_251" fill="#ffffff" d="m44.219238,-69.98489l0,-0.858c0,-0.722 -0.584,-1.306 -1.307,-1.306l-1.927,0c0.183,-0.373 0.287,-0.776 0.287,-1.208c0,-1.474 -1.198,-2.678 -2.672,-2.678c-1.473,0 -2.672,1.206 -2.672,2.681c0,0.433 0.104,0.833 0.287,1.206l-2.582,0c-0.722,0 -1.306,0.584 -1.306,1.306l0,0.857l-3.29,0c-1.169,0 -2.118,0.948 -2.118,2.117l0,21.715c0,1.17 0.948,2.118 2.118,2.118l18.472,0c1.17,0 2.117,-0.948 2.117,-2.118l0,-21.715c0,-1.169 -0.949,-2.117 -2.117,-2.117l-3.29,0zm-7.211,-3.371c0,-0.879 0.715,-1.599 1.592,-1.599c0.877,0 1.592,0.721 1.592,1.601c0,0.48 -0.213,0.915 -0.547,1.206l-2.089,0c-0.336,-0.291 -0.548,-0.728 -0.548,-1.208zm10.455,26.059c0,0.606 -0.492,1.1 -1.099,1.1l-16.183,0c-0.607,0 -1.099,-0.492 -1.099,-1.1l0,-19.427c0,-0.607 0.492,-1.099 1.099,-1.099l2.145,0c0,0.597 0.484,1.081 1.081,1.081l9.73,0c0.598,0 1.082,-0.484 1.082,-1.081l2.146,0c0.606,0 1.099,0.491 1.099,1.099l0,19.427l-0.001,0z"/>
     <path stroke="null" id="svg_252" fill="#ffffff" d="m37.402238,-56.46289l-1.318,-1.32c-0.148,-0.148 -0.35,-0.232 -0.56,-0.232c-0.21,0 -0.411,0.084 -0.56,0.232l-0.409,0.409c-0.309,0.309 -0.309,0.81 0,1.119l2.315,2.317c0.151,0.15 0.358,0.234 0.571,0.23c0.214,-0.003 0.418,-0.092 0.565,-0.248l4.021,-4.264c0.3,-0.317 0.286,-0.817 -0.032,-1.118l-0.42,-0.396c-0.152,-0.145 -0.355,-0.222 -0.566,-0.216c-0.209,0.006 -0.408,0.096 -0.553,0.248l-3.054,3.239z"/>
     <path stroke="null" id="svg_253" fill="#ffffff" d="m38.272238,-65.13189c-4.356,0 -7.899,3.548 -7.899,7.91c0,4.359 3.543,7.908 7.899,7.908c4.355,0 7.9,-3.549 7.9,-7.908c0,-4.362 -3.543,-7.91 -7.9,-7.91zm0,13.658c-3.165,0 -5.739,-2.578 -5.739,-5.748c0,-3.17 2.574,-5.749 5.739,-5.749c3.164,0 5.74,2.578 5.74,5.749c0,3.169 -2.576,5.748 -5.74,5.748z"/>
    </g>
   </g>
   <g stroke="null" transform="matrix(0.7376372085996716,0,0,0.7376372085996716,81.3104058178301,56.186004898025715) " id="svg_256"/>
   <g stroke="null" transform="matrix(0.7376372085996716,0,0,0.7376372085996716,81.3104058178301,56.186004898025715) " id="svg_257"/>
   <g stroke="null" transform="matrix(0.7376372085996716,0,0,0.7376372085996716,81.3104058178301,56.186004898025715) " id="svg_258"/>
   <g stroke="null" transform="matrix(0.7376372085996716,0,0,0.7376372085996716,81.3104058178301,56.186004898025715) " id="svg_259"/>
   <g stroke="null" transform="matrix(0.7376372085996716,0,0,0.7376372085996716,81.3104058178301,56.186004898025715) " id="svg_260"/>
   <g stroke="null" transform="matrix(0.7376372085996716,0,0,0.7376372085996716,81.3104058178301,56.186004898025715) " id="svg_261"/>
   <g stroke="null" transform="matrix(0.7376372085996716,0,0,0.7376372085996716,81.3104058178301,56.186004898025715) " id="svg_262"/>
   <g stroke="null" transform="matrix(0.7376372085996716,0,0,0.7376372085996716,81.3104058178301,56.186004898025715) " id="svg_263"/>
   <g stroke="null" transform="matrix(0.7376372085996716,0,0,0.7376372085996716,81.3104058178301,56.186004898025715) " id="svg_264"/>
   <g stroke="null" transform="matrix(0.7376372085996716,0,0,0.7376372085996716,81.3104058178301,56.186004898025715) " id="svg_265"/>
   <g stroke="null" transform="matrix(0.7376372085996716,0,0,0.7376372085996716,81.3104058178301,56.186004898025715) " id="svg_266"/>
   <g stroke="null" transform="matrix(0.7376372085996716,0,0,0.7376372085996716,81.3104058178301,56.186004898025715) " id="svg_267"/>
   <g stroke="null" transform="matrix(0.7376372085996716,0,0,0.7376372085996716,81.3104058178301,56.186004898025715) " id="svg_268"/>
   <g stroke="null" transform="matrix(0.7376372085996716,0,0,0.7376372085996716,81.3104058178301,56.186004898025715) " id="svg_269"/>
   <g stroke="null" transform="matrix(0.7376372085996716,0,0,0.7376372085996716,81.3104058178301,56.186004898025715) " id="svg_270"/>
  </g>
 </g>
</svg>